<?xml version="1.0" encoding="utf-8"?>
<!-- Generator: Adobe Illustrator 19.0.0, SVG Export Plug-In . SVG Version: 6.00 Build 0)  -->
<svg version="1.1" id="Layer_1" xmlns="http://www.w3.org/2000/svg" xmlns:xlink="http://www.w3.org/1999/xlink" x="0px" y="0px"
	 viewBox="0 0 500 500" style="enable-background:new 0 0 500 500;" xml:space="preserve">
<style type="text/css">
	.st0{fill:#58595B;}
	.st1{fill:#F15A22;}
	.st2{fill:#F99D1C;}
	.st3{fill:#B34214;}
	.st4{fill:#638595;}
	.st5{clip-path:url(#XMLID_41_);fill:#FCAF17;}
	.st6{fill:#F05B7D;}
	.st7{fill:#F36F21;}
</style>
<g id="XMLID_1_">
	<path id="XMLID_3_" class="st0" d="M224.2,250.8h-1.4c0,11.8-4.8,22.5-12.5,30.2c-7.7,7.7-18.4,12.5-30.2,12.5
		c-11.8,0-22.5-4.8-30.2-12.5c-7.7-7.7-12.5-18.4-12.5-30.2c0-11.8,4.8-22.5,12.5-30.2c7.7-7.7,18.4-12.5,30.2-12.5
		c11.8,0,22.5,4.8,30.2,12.5c7.7,7.7,12.5,18.4,12.5,30.2H224.2h1.4c0-25.2-20.4-45.6-45.6-45.6c-25.2,0-45.6,20.4-45.6,45.6
		c0,25.2,20.4,45.6,45.6,45.6c25.2,0,45.6-20.4,45.6-45.6H224.2z"/>
	<path id="XMLID_4_" class="st1" d="M231.9,250.7h-0.8c0,14.1-5.7,26.9-15,36.2c-9.3,9.3-22,15-36.1,15c-14.1,0-26.9-5.7-36.2-15
		c-9.3-9.3-15-22-15-36.2c0-14.1,5.7-26.9,15-36.1c9.3-9.3,22-15,36.2-15c14.1,0,26.9,5.7,36.1,15c9.3,9.3,15,22,15,36.1H231.9h0.8
		c0-29.1-23.6-52.6-52.6-52.6c-29.1,0-52.7,23.6-52.7,52.6c0,29.1,23.6,52.7,52.7,52.7c29.1,0,52.6-23.6,52.6-52.7H231.9z"/>
	<path id="XMLID_5_" class="st2" d="M242,250.7h-3.8c0,16.1-6.5,30.6-17,41.2c-10.5,10.5-25.1,17-41.2,17.1
		c-16.1,0-30.6-6.5-41.2-17.1c-10.5-10.5-17.1-25.1-17.1-41.2c0-16.1,6.5-30.6,17.1-41.2c10.5-10.5,25.1-17,41.2-17.1
		c16.1,0,30.6,6.5,41.2,17.1c10.5,10.5,17,25.1,17,41.2H242h3.8c0-36.3-29.5-65.8-65.8-65.8c-36.4,0-65.8,29.5-65.8,65.8
		c0,36.4,29.5,65.8,65.8,65.8c36.4,0,65.8-29.5,65.8-65.8H242z"/>
	<path id="XMLID_6_" class="st3" d="M259.7,244.8h-1.4c0,20.9-8.5,39.9-22.2,53.6c-13.7,13.7-32.7,22.2-53.6,22.2
		c-20.9,0-39.9-8.5-53.6-22.2c-13.7-13.7-22.2-32.7-22.2-53.6c0-20.9,8.5-39.9,22.2-53.6c13.7-13.7,32.7-22.2,53.6-22.2
		c20.9,0,39.9,8.5,53.6,22.2c13.7,13.7,22.2,32.7,22.2,53.6H259.7h1.4c0-43.4-35.2-78.6-78.6-78.6c-43.4,0-78.6,35.2-78.6,78.6
		c0,43.4,35.2,78.6,78.6,78.6c43.4,0,78.6-35.2,78.6-78.6H259.7z"/>
	<path id="XMLID_7_" class="st4" d="M267.5,243.8H266c0,22.8-9.2,43.4-24.2,58.3c-14.9,14.9-35.6,24.2-58.3,24.2
		c-22.8,0-43.4-9.2-58.3-24.2c-14.9-14.9-24.2-35.6-24.2-58.3c0-22.8,9.2-43.4,24.2-58.3c14.9-14.9,35.5-24.2,58.3-24.2
		c22.8,0,43.4,9.2,58.3,24.2c14.9,14.9,24.2,35.5,24.2,58.3H267.5h1.4c0-47.1-38.2-85.3-85.4-85.3c-47.1,0-85.3,38.2-85.3,85.3
		c0,47.1,38.2,85.4,85.3,85.4c47.1,0,85.4-38.2,85.4-85.4H267.5z"/>
	<g id="XMLID_10_">
		<defs>
			<rect id="XMLID_9_" x="67.5" y="117.8" width="365" height="264.4"/>
		</defs>
		<clipPath id="XMLID_41_">
			<use xlink:href="#XMLID_9_"  style="overflow:visible;"/>
		</clipPath>
		<path id="XMLID_11_" class="st5" d="M275.4,247.7h-1.9c0,27.9-11.3,53.1-29.5,71.3c-18.3,18.3-43.5,29.5-71.3,29.5
			c-27.9,0-53.1-11.3-71.3-29.5c-18.3-18.3-29.5-43.5-29.5-71.3c0-27.9,11.3-53.1,29.5-71.3c18.3-18.3,43.5-29.5,71.3-29.5
			c27.9,0,53.1,11.3,71.3,29.5c18.3,18.3,29.5,43.5,29.5,71.3H275.4h1.9c0-57.8-46.9-104.7-104.7-104.7C114.8,143,68,189.9,68,247.7
			c0,57.8,46.9,104.7,104.7,104.7c57.8,0,104.7-46.9,104.7-104.7H275.4z"/>
	</g>
	<path id="XMLID_8_" class="st6" d="M295,277.6h-0.8c0,28.4-11.5,54.1-30.1,72.8c-18.6,18.6-44.3,30.1-72.8,30.1
		c-28.4,0-54.1-11.5-72.7-30.1C100,331.7,88.5,306,88.5,277.6c0-28.4,11.5-54.1,30.1-72.7c18.6-18.6,44.3-30.1,72.7-30.1
		c28.4,0,54.1,11.5,72.8,30.1c18.6,18.6,30.1,44.3,30.1,72.7H295h0.8c0-57.7-46.7-104.4-104.4-104.4C133.7,173.2,87,219.9,87,277.6
		C87,335.2,133.7,382,191.4,382c57.7,0,104.4-46.7,104.4-104.4H295z"/>
	<path id="XMLID_12_" class="st7" d="M318.1,234.6h-0.8c0,31.8-13.1,60.6-34.4,81.4c-21.3,20.8-50.6,33.7-83.1,33.7
		c-32.4,0-61.8-12.9-83.1-33.7c-21.3-20.8-34.4-49.6-34.4-81.4c0-31.8,13.1-60.5,34.4-81.4c21.3-20.8,50.6-33.7,83.1-33.7
		c32.4,0,61.8,12.9,83.1,33.7c21.3,20.8,34.4,49.6,34.4,81.4H318.1h0.8c0-32.2-13.3-61.4-34.9-82.5c-21.5-21.1-51.3-34.2-84.1-34.2
		c-32.9,0-62.6,13.1-84.1,34.2c-21.5,21.1-34.9,50.3-34.9,82.5c0,32.2,13.3,61.4,34.9,82.5c21.5,21.1,51.3,34.2,84.1,34.2
		c32.9,0,62.6-13.1,84.1-34.2c21.5-21.1,34.9-50.3,34.9-82.5H318.1z"/>
	<polyline id="XMLID_13_" class="st0" points="281.6,269.6 281.6,229 289.6,229 289.6,262.5 308,262.5 308,269.6 281.6,269.6 	"/>
	<path id="XMLID_14_" class="st0" d="M321.5,274.4c-0.6,1.7-1.3,2.9-2.2,3.8c-1.7,1.7-3.9,2.3-6.4,2.3H310v-6.7h1.7
		c2.1,0,3-0.5,3.7-2.7l1.3-3.7l-10.2-27.6h7.8l6.2,18.4l5.9-18.4h7.8L321.5,274.4"/>
	<path id="XMLID_17_" class="st0" d="M352.9,247.5c-0.9-0.9-2-1.3-3.5-1.3c-1.5,0-2.6,0.5-3.4,1.3c-1.5,1.5-1.7,4.1-1.7,7.2
		c0,3.1,0.2,5.7,1.7,7.3c0.9,0.9,1.9,1.3,3.4,1.3c1.5,0,2.6-0.5,3.5-1.3c1.5-1.5,1.7-4.2,1.7-7.3
		C354.6,251.6,354.4,249.1,352.9,247.5z M358.7,266.3c-1.8,1.9-4.9,3.7-9.3,3.7c-4.4,0-7.4-1.7-9.2-3.7c-2.7-2.8-3.4-6.2-3.4-11.6
		c0-5.4,0.7-8.7,3.4-11.5c1.8-1.9,4.8-3.7,9.2-3.7c4.4,0,7.4,1.7,9.3,3.7c2.7,2.8,3.4,6.2,3.4,11.5
		C362,260.1,361.3,263.5,358.7,266.3"/>
	<path id="XMLID_18_" class="st0" d="M386.4,269.6v-18c0-4.1-2.6-5.4-4.9-5.4c-2.3,0-5,1.4-5,5.4v18h-7.4v-29.8h7.3v2.7
		c1.9-2.1,4.7-3.1,7.4-3.1c3,0,5.4,1,7,2.6c2.4,2.4,3,5.2,3,8.5v19H386.4"/>
	<polyline id="XMLID_19_" class="st0" points="425.1,269.6 425.1,237 416.8,244.2 416.8,236.2 425.1,229 432.5,229 432.5,269.6 
		425.1,269.6 	"/>
	<path id="XMLID_20_" class="st0" d="M165.3,237.1v16.6h0c0,2.6-2.1,4.8-4.8,4.8c-2.6,0-4.8-2.1-4.8-4.8h0v-15.1h-7.9v15.1
		c0,7,5.7,12.7,12.7,12.7c7,0,12.7-5.7,12.7-12.7v-16.6H165.3"/>
	<polyline id="XMLID_21_" class="st0" points="184.8,269.1 184.8,247 176.7,247 176.7,276.7 195.8,276.7 195.8,269.1 184.8,269.1 	
		"/>
	<path id="XMLID_25_" class="st0" d="M198.9,258.7l-2.6,0l0-4l2.7,0c1.2,0,2.2,0.9,2.2,2C201.1,257.8,200.2,258.7,198.9,258.7z
		 M198.6,243.4c1.3,0,2.3,0.9,2.3,2.1c0,1.2-1,2.1-2.3,2.1l-2.2,0v-4.2H198.6z M206.3,250.3c1.6-1.4,2.6-3.4,2.6-5.6
		c0-4.1-3.3-7.4-7.5-7.4l-12.9,0v28.3l13.5,0c4.5,0,8.2-3.7,8.2-8.2C210.3,254.3,208.7,251.7,206.3,250.3"/>
	<path id="XMLID_26_" class="st0" d="M179.2,242.8c-3.1,0-5.6-2.5-5.6-5.6c0-3.1,2.5-5.6,5.6-5.6c1.1,0,2.1,0.3,2.9,0.8l4.3-7
		c-2.1-1.3-4.5-2-7.2-2c-7.7,0-13.9,6.2-13.9,13.9c0,7.6,6.2,13.9,13.9,13.9c7.7,0,13.9-6.2,13.9-13.9h-8.2
		C184.8,240.3,182.3,242.8,179.2,242.8"/>
</g>
</svg>
