<svg xmlns="http://www.w3.org/2000/svg" viewBox="0 0 480 300" width="480" height="300" role="img">
<defs>
<marker id="ah" viewBox="0 0 10 10" refX="9" refY="5" markerWidth="6" markerHeight="6" orient="auto-start-reverse">
<path d="M0 0 L10 5 L0 10 z" fill="#8b95a3"/></marker>
<marker id="ahc" viewBox="0 0 10 10" refX="9" refY="5" markerWidth="6" markerHeight="6" orient="auto-start-reverse">
<path d="M0 0 L10 5 L0 10 z" fill="#2c5282"/></marker>
</defs>
<rect width="100%" height="100%" fill="#ffffff"/><text x="16" y="28" font-family="Trebuchet MS, Helvetica, Arial, sans-serif" font-size="12" font-weight="700" fill="#2c5282">PROPERTY GRAPH</text><text x="272" y="28" font-family="Trebuchet MS, Helvetica, Arial, sans-serif" font-size="12" font-weight="700" fill="#2c5282">CAUSAL DAG + do(·)</text><rect x="10" y="40" width="212" height="210" rx="8" fill="#fbfdff" stroke="#dbe6f2"/><rect x="266" y="40" width="204" height="210" rx="8" fill="#fbfdff" stroke="#dbe6f2"/><line x1="62" y1="86" x2="152" y2="68" stroke="#b8c6d6" stroke-width="1.6"/><line x1="62" y1="86" x2="96" y2="146" stroke="#b8c6d6" stroke-width="1.6"/><line x1="152" y1="68" x2="174" y2="140" stroke="#b8c6d6" stroke-width="1.6"/><line x1="96" y1="146" x2="174" y2="140" stroke="#b8c6d6" stroke-width="1.6"/><line x1="96" y1="146" x2="112" y2="212" stroke="#b8c6d6" stroke-width="1.6"/><circle cx="62" cy="86" r="13" fill="#e8f4fd" stroke="#2c5282" stroke-width="1.6"/><text x="62" y="90" font-family="Trebuchet MS, Helvetica, Arial, sans-serif" font-size="11" font-weight="700" fill="#2c5282" text-anchor="middle">A</text><circle cx="152" cy="68" r="13" fill="#e8f4fd" stroke="#2c5282" stroke-width="1.6"/><text x="152" y="72" font-family="Trebuchet MS, Helvetica, Arial, sans-serif" font-size="11" font-weight="700" fill="#2c5282" text-anchor="middle">B</text><circle cx="96" cy="146" r="13" fill="#e8f4fd" stroke="#2c5282" stroke-width="1.6"/><text x="96" y="150" font-family="Trebuchet MS, Helvetica, Arial, sans-serif" font-size="11" font-weight="700" fill="#2c5282" text-anchor="middle">C</text><circle cx="174" cy="140" r="13" fill="#e8f4fd" stroke="#2c5282" stroke-width="1.6"/><text x="174" y="144" font-family="Trebuchet MS, Helvetica, Arial, sans-serif" font-size="11" font-weight="700" fill="#2c5282" text-anchor="middle">D</text><circle cx="112" cy="212" r="13" fill="#e8f4fd" stroke="#2c5282" stroke-width="1.6"/><text x="112" y="216" font-family="Trebuchet MS, Helvetica, Arial, sans-serif" font-size="11" font-weight="700" fill="#2c5282" text-anchor="middle">E</text><text x="116" y="238" font-family="Trebuchet MS, Helvetica, Arial, sans-serif" font-size="11" fill="#7b879a" text-anchor="middle">nodes + properties, undirected</text><line x1="228" y1="145" x2="258" y2="145" stroke="#8b95a3" stroke-width="1.8" marker-end="url(#ah)"/><text x="243" y="132" font-family="Trebuchet MS, Helvetica, Arial, sans-serif" font-size="10" fill="#7b879a" text-anchor="middle">discovery</text><line x1="332" y1="83" x2="391" y2="71" stroke="#2c5282" stroke-width="1.6" marker-end="url(#ahc)"/><line x1="325" y1="98" x2="344" y2="131" stroke="#2c5282" stroke-width="1.6" marker-end="url(#ahc)"/><line x1="412" y1="81" x2="425" y2="124" stroke="#2c5282" stroke-width="1.6" stroke-dasharray="4 3" marker-end="url(#ahc)"/><line x1="366" y1="145" x2="413" y2="141" stroke="#2c5282" stroke-width="1.6" marker-end="url(#ahc)"/><line x1="355" y1="160" x2="364" y2="195" stroke="#2c5282" stroke-width="1.6" marker-end="url(#ahc)"/><circle cx="318" cy="86" r="13" fill="#2c5282" stroke="#2c5282" stroke-width="1.6"/><text x="318" y="90" font-family="Trebuchet MS, Helvetica, Arial, sans-serif" font-size="11" font-weight="700" fill="#ffffff" text-anchor="middle">A</text><circle cx="408" cy="68" r="13" fill="#e8f4fd" stroke="#2c5282" stroke-width="1.6"/><text x="408" y="72" font-family="Trebuchet MS, Helvetica, Arial, sans-serif" font-size="11" font-weight="700" fill="#2c5282" text-anchor="middle">B</text><circle cx="352" cy="146" r="13" fill="#e8f4fd" stroke="#2c5282" stroke-width="1.6"/><text x="352" y="150" font-family="Trebuchet MS, Helvetica, Arial, sans-serif" font-size="11" font-weight="700" fill="#2c5282" text-anchor="middle">C</text><circle cx="430" cy="140" r="13" fill="#e8f4fd" stroke="#2c5282" stroke-width="1.6"/><text x="430" y="144" font-family="Trebuchet MS, Helvetica, Arial, sans-serif" font-size="11" font-weight="700" fill="#2c5282" text-anchor="middle">D</text><circle cx="368" cy="212" r="13" fill="#e8f4fd" stroke="#2c5282" stroke-width="1.6"/><text x="368" y="216" font-family="Trebuchet MS, Helvetica, Arial, sans-serif" font-size="11" font-weight="700" fill="#2c5282" text-anchor="middle">E</text><text x="318" y="64" font-family="Trebuchet MS, Helvetica, Arial, sans-serif" font-size="11" font-weight="700" fill="#2c5282" text-anchor="middle">do(A)</text><text x="368" y="238" font-family="Trebuchet MS, Helvetica, Arial, sans-serif" font-size="11" fill="#7b879a" text-anchor="middle">directed, dashed = low confidence</text><text x="240" y="276" font-family="Trebuchet MS, Helvetica, Arial, sans-serif" font-size="11.5" fill="#4a515b" text-anchor="middle">CDAG construction &#8594; confidence calibration &#8594; intervention queries</text></svg>