<svg xmlns="http://www.w3.org/2000/svg" viewBox="0 0 420 130" role="img" aria-labelledby="title desc">
  <title id="title">BookRAG logo</title>
  <desc id="desc">A simple logo for BookRAG with a book and graph nodes.</desc>
  <rect width="420" height="130" rx="14" fill="#fffaf3"/>
  <path d="M55 33h92c18 0 32 14 32 32v34H87c-18 0-32-14-32-32V33z" fill="#f7e4bd" stroke="#9a5a12" stroke-width="5"/>
  <path d="M179 33h92v34c0 18-14 32-32 32h-92V65c0-18 14-32 32-32z" fill="#fff4dc" stroke="#9a5a12" stroke-width="5"/>
  <path d="M147 41v58" stroke="#9a5a12" stroke-width="4"/>
  <circle cx="302" cy="40" r="10" fill="#2f6f97"/>
  <circle cx="338" cy="66" r="10" fill="#2f7a5b"/>
  <circle cx="302" cy="92" r="10" fill="#9a5a12"/>
  <path d="M311 45l18 13M329 72l-18 13" stroke="#687076" stroke-width="4" stroke-linecap="round"/>
  <text x="56" y="119" fill="#2f363d" font-family="Arial, Helvetica, sans-serif" font-size="24" font-weight="700">BookRAG</text>
</svg>
