<svg width="1200" height="720" viewBox="0 0 1200 720" fill="none" xmlns="http://www.w3.org/2000/svg">
  <rect width="1200" height="720" rx="36" fill="#F5FAF7"/>
  <rect x="72" y="78" width="1056" height="564" rx="28" fill="#FFFFFF" stroke="#D9E7DF" stroke-width="4"/>
  <circle cx="260" cy="230" r="72" fill="#D6F0E4"/>
  <circle cx="484" cy="176" r="48" fill="#BEE4F6"/>
  <circle cx="506" cy="384" r="56" fill="#FDE2C2"/>
  <circle cx="760" cy="228" r="62" fill="#DCCEF9"/>
  <circle cx="900" cy="388" r="82" fill="#FBD3DB"/>
  <path d="M260 230L484 176" stroke="#669E8B" stroke-width="10" stroke-linecap="round"/>
  <path d="M260 230L506 384" stroke="#669E8B" stroke-width="10" stroke-linecap="round"/>
  <path d="M484 176L760 228" stroke="#669E8B" stroke-width="10" stroke-linecap="round"/>
  <path d="M506 384L760 228" stroke="#669E8B" stroke-width="10" stroke-linecap="round"/>
  <path d="M760 228L900 388" stroke="#669E8B" stroke-width="10" stroke-linecap="round"/>
  <rect x="766" y="116" width="250" height="112" rx="18" fill="#FFF8EC" stroke="#F0C987" stroke-width="4"/>
  <text x="798" y="164" fill="#805A1F" font-family="Arial, sans-serif" font-size="34" font-weight="700">LLM</text>
  <text x="798" y="205" fill="#805A1F" font-family="Arial, sans-serif" font-size="22">Reasoning + Retrieval</text>
  <rect x="164" y="490" width="872" height="78" rx="16" fill="#F7FBFF" stroke="#D0E0F0" stroke-width="4"/>
  <text x="214" y="538" fill="#2E597A" font-family="Arial, sans-serif" font-size="30" font-weight="700">Graph-based RAG  •  Graph Memory  •  Agentic Retrieval</text>
</svg>
